<svg width="150" height="59" viewBox="0 0 150 59" fill="none" xmlns="http://www.w3.org/2000/svg">
<g clip-path="url(#clip0_6_10)">
<path d="M14.0203 33.7332C14.4726 32.092 14.9554 30.429 15.4246 28.8187C15.8068 27.5077 16.2003 26.1591 16.5768 24.8184C17.0393 26.4722 17.5198 28.1329 17.9868 29.733C18.3735 31.0611 18.7602 32.3903 19.1378 33.7275L19.1876 33.9024L27.9471 33.8784L28.794 30.9982C29.3918 28.96 29.9922 26.9233 30.5952 24.8882L33.2422 33.9252L43.7 33.9047L44.8307 31.5045L54.6881 31.4794L56.2767 33.9024H66.1455L65.0792 31.4908C67.6131 33.5824 70.7983 34.6818 74.3589 34.6818C78.5153 34.6818 82.1121 33.1435 84.6188 30.3239L83.5582 33.8841L92.744 33.9104L92.7926 33.7332C93.2449 32.0931 93.7277 30.4313 94.1958 28.8244C94.5791 27.5112 94.9726 26.1602 95.3503 24.8139C95.7969 26.4048 96.2548 28.0003 96.7071 29.5513C97.1096 30.9411 97.5133 32.3309 97.9079 33.7286L97.9577 33.9035L106.717 33.8795L107.735 30.4348C108.276 28.584 108.822 26.7355 109.372 24.8893L112.02 33.9252H112.199C113.764 33.9252 115.327 33.9218 116.89 33.9149C118.699 33.9104 120.505 33.9073 122.308 33.9058H122.421L124.004 31.8097H133.515L135.098 33.9058H144.935L144.784 33.5629C141.116 25.2577 137.443 16.9525 133.767 8.64726L133.705 8.5044H122.341L117.329 20.7005L113.806 8.54211L104.967 8.56154L102.382 17.5106L99.7476 8.52954L90.9406 8.54554L90.8908 8.71812C90.1905 11.132 89.4948 13.5454 88.8035 15.9585L88.7153 16.2671H96.7048C97.2623 16.2671 97.5122 16.6843 97.5122 17.098C97.5122 17.5118 97.2623 17.9301 96.7048 17.9301H71.9652V23.6584H79.5408C78.9619 24.927 78.4576 25.6756 77.8448 26.1979C76.7571 27.1123 75.1651 27.4849 73.4792 27.206C71.7255 26.918 70.2002 25.9694 69.4087 24.6676C67.9263 22.232 68.2429 18.529 70.1255 16.5528C70.804 15.5482 72.4186 14.8579 74.2334 14.7962C75.9667 14.7299 77.4875 15.2693 78.2044 16.186L78.2756 16.2785H87.4772L87.3562 15.9528C85.3673 10.6039 80.4873 7.41748 74.2865 7.41748C68.339 7.41748 63.5189 10.4874 61.3965 15.6305C60.7308 17.2817 60.3805 19.0455 60.3642 20.8285L54.9109 8.50325H43.5315L38.535 20.6514L35.0298 8.54211L26.1911 8.56154L23.6075 17.5106L20.973 8.52954H14.9565L14.8977 8.68384C13.2684 12.9126 11.4943 17.1517 9.77906 21.256C8.11354 25.239 6.38696 29.357 4.75423 33.5652L4.62646 33.8932L13.9728 33.9195L14.0203 33.7332ZM52.1079 23.5441H47.7818L49.8566 19.2856L52.1079 23.5441ZM130.917 23.5441H126.591L128.667 19.2856L130.917 23.5441Z" fill="black"/>
<path d="M131.519 0H17.9135H17.7439L16.8643 2.76358H132.288L131.519 0Z" fill="black"/>
<path d="M147.332 39.0319H1.84754L0.65918 41.992H148.492L147.332 39.0319Z" fill="black"/>
<path d="M7.10305 48.5046L5.90338 49.476C5.64673 49.1943 5.35745 48.9449 5.04178 48.7331C4.78398 48.5701 4.41198 48.4882 3.92578 48.4874C3.39813 48.4874 2.96658 48.6089 2.63113 48.852C2.47748 48.9541 2.35155 49.0934 2.26485 49.2573C2.17815 49.4213 2.13342 49.6045 2.13476 49.7903C2.13793 49.9603 2.17855 50.1273 2.25366 50.2794C2.32877 50.4314 2.43648 50.5646 2.56895 50.6692C2.85765 50.9245 3.35026 51.203 4.04677 51.5047C4.61179 51.7371 5.15581 52.0185 5.67271 52.3459C6.03338 52.5819 6.35537 52.8735 6.62702 53.21C6.8675 53.5076 7.05567 53.8447 7.18333 54.2066C7.30694 54.5635 7.3689 54.9393 7.3665 55.3175C7.37245 55.7536 7.28811 56.186 7.1189 56.5872C6.94968 56.9883 6.69933 57.3492 6.38392 57.6468C6.07162 57.9591 5.70064 58.205 5.29284 58.3701C4.88504 58.5351 4.44867 58.616 4.00946 58.608C3.14964 58.6231 2.30763 58.3595 1.60672 57.8559C0.912473 57.3538 0.376899 56.6014 0 55.5987L1.48008 55.1769C2.0183 56.409 2.84408 57.025 3.95744 57.025C4.45081 57.042 4.93189 56.8674 5.30184 56.537C5.47512 56.3835 5.61294 56.1933 5.70554 55.98C5.79815 55.7668 5.8433 55.5355 5.83779 55.3026C5.83083 54.9815 5.73228 54.6691 5.55399 54.4032C5.37487 54.1125 5.1395 53.8613 4.862 53.6648C4.44251 53.3981 3.99785 53.1741 3.53456 52.9962C3.04954 52.8074 2.58094 52.578 2.13363 52.3105C1.81347 52.108 1.52691 51.8557 1.28447 51.563C1.06399 51.3057 0.886408 51.0139 0.758698 50.699C0.647218 50.4074 0.590838 50.0972 0.592486 49.7846C0.592486 48.9991 0.904559 48.3305 1.5287 47.7788C2.15579 47.2242 2.96616 46.928 3.79915 46.949C4.41698 46.9549 5.02729 47.0867 5.59356 47.3365C6.189 47.5859 6.70943 47.9886 7.10305 48.5046Z" fill="black" stroke="black" stroke-miterlimit="10"/>
<path d="M27.6938 47.2838H34.3197V48.7799H31.7338V58.2376H30.2707V48.7799H27.6938V47.2838Z" fill="black" stroke="black" stroke-miterlimit="10"/>
<path d="M55.0991 47.3009H56.5792V54.0327C56.5792 55.0309 56.8159 55.8019 57.2893 56.346C57.7627 56.89 58.4332 57.1624 59.3008 57.1632C60.1624 57.1632 60.8329 56.9121 61.3123 56.41C61.7917 55.9079 62.0314 55.2008 62.0314 54.2887V47.3009H63.5115V54.1881C63.5115 55.5292 63.1346 56.6008 62.3808 57.4032C61.627 58.2055 60.6188 58.6067 59.3562 58.6067C58.0695 58.6067 57.039 58.1998 56.2649 57.386C55.4907 56.5723 55.1021 55.3714 55.0991 53.7835V47.3009Z" fill="black" stroke="black" stroke-miterlimit="10"/>
<path d="M84.8511 47.2838H87.4799C89.5604 47.2838 91.1084 47.8397 92.1237 48.9513C93.1391 50.063 93.6468 51.3328 93.6468 52.7607C93.6468 54.2 93.1221 55.4725 92.0728 56.578C91.0236 57.6836 89.4982 58.2368 87.4969 58.2376H84.8511V47.2838ZM86.3312 48.7456V56.7586H86.416C87.5165 56.7586 88.3457 56.7083 88.9035 56.6078C89.471 56.5035 90.0103 56.2796 90.4865 55.9506C90.9883 55.6098 91.3976 55.1473 91.6771 54.6054C91.9746 54.0374 92.127 53.4033 92.1203 52.7607C92.1272 51.9428 91.88 51.1433 91.4136 50.4748C90.9433 49.7891 90.3806 49.3319 89.7255 49.1033C89.0705 48.8748 88.19 48.7574 87.0842 48.7513L86.3312 48.7456Z" fill="black" stroke="black" stroke-miterlimit="10"/>
<path d="M114.492 47.2838H115.955V58.2376H114.492V47.2838Z" fill="black" stroke="black" stroke-miterlimit="10"/>
<path d="M137.049 52.6966C137.049 51.1148 137.638 49.7601 138.818 48.6324C139.998 47.5047 141.416 46.9405 143.072 46.9398C143.845 46.9291 144.613 47.0744 145.33 47.3672C146.047 47.66 146.699 48.0944 147.247 48.645C148.415 49.7818 148.999 51.1324 149 52.6966C149 54.3516 148.423 55.7505 147.269 56.8934C146.115 58.0364 144.698 58.6078 143.02 58.6078C141.361 58.6078 139.953 58.0326 138.793 56.882C138.231 56.3447 137.786 55.6952 137.486 54.9747C137.185 54.2542 137.036 53.4784 137.049 52.6966ZM147.426 52.7652C147.436 52.1937 147.326 51.6266 147.103 51.1012C146.88 50.5759 146.55 50.1041 146.134 49.7171C145.271 48.8896 144.21 48.4758 142.952 48.4758C142.382 48.4668 141.816 48.5739 141.288 48.7909C140.759 49.0079 140.28 49.3303 139.878 49.7388C139.467 50.1265 139.142 50.5964 138.921 51.1185C138.701 51.6406 138.591 52.2034 138.598 52.7709C138.589 53.3425 138.702 53.9093 138.928 54.433C139.155 54.9567 139.49 55.4251 139.911 55.8065C140.788 56.634 141.861 57.0477 143.131 57.0477C143.694 57.0534 144.252 56.9435 144.772 56.7246C145.292 56.5058 145.762 56.1826 146.155 55.7745C147.002 54.9311 147.425 53.928 147.426 52.7652Z" fill="black" stroke="black" stroke-miterlimit="10"/>
</g>
<defs>
<clipPath id="clip0_6_10">
<rect width="150" height="59" fill="white"/>
</clipPath>
</defs>
</svg>
