<svg width="40" height="40" viewBox="0 0 40 40" fill="none" xmlns="http://www.w3.org/2000/svg">
<path d="M39.9848 20.0582C39.952 20.8021 40.0016 21.5613 39.8672 22.2868C39.6272 23.5787 39.4488 24.8827 39.0151 26.1434C38.7355 26.9813 38.4107 27.8035 38.0423 28.6064C37.5798 29.5968 37.0268 30.5424 36.3902 31.431C35.5854 32.5445 34.7189 33.6013 33.7084 34.5372C33.0014 35.1838 32.2589 35.7906 31.4843 36.3547C30.7147 36.9242 29.8842 37.3866 29.0474 37.8314C28.4922 38.1269 27.9178 38.3848 27.3281 38.6033C26.6233 38.8633 25.928 39.1761 25.1968 39.3233C24.3831 39.4833 23.5871 39.7233 22.7566 39.8232C21.5228 39.9843 20.277 40.0354 19.034 39.976C17.8756 39.9136 16.7219 39.7993 15.5883 39.4889C14.9434 39.3121 14.2818 39.1929 13.6417 38.9833C12.2993 38.5369 11.0536 37.8874 9.80154 37.257C9.65993 37.1858 9.54712 37.0578 9.41032 36.973C8.96469 36.6979 8.50227 36.893 8.09584 37.0282C7.50621 37.225 6.89978 37.3394 6.30695 37.5138C5.14288 37.8578 3.93882 38.0522 2.79395 38.4737C2.46594 38.5953 2.09872 38.5657 1.7627 38.7137C1.55229 38.8081 1.60269 38.5833 1.62669 38.4737C1.74229 37.7996 1.91738 37.1371 2.14992 36.4939C2.26949 36.1454 2.3602 35.7877 2.42113 35.4243C2.54754 34.81 2.78675 34.234 2.92276 33.6253C3.05477 33.0309 3.18358 32.4317 3.42919 31.8654C3.53159 31.6254 3.53319 31.3758 3.33958 31.0902C2.93136 30.4696 2.55744 29.8271 2.21952 29.1656C1.9171 28.592 1.68109 27.9896 1.39148 27.4121C1.14586 26.9233 1.03306 26.3722 0.858648 25.845C0.618635 25.1306 0.52663 24.3843 0.357021 23.6571C-0.0814033 21.7829 -0.0430017 19.8918 0.0890055 18.0015C0.152209 17.0824 0.389022 16.1776 0.573832 15.2705C0.692238 14.6921 0.893849 14.1506 1.05946 13.5906C1.32027 12.7019 1.7147 11.8611 2.14112 11.0388C2.44594 10.4508 2.76195 9.86526 3.11717 9.3069C3.46279 8.76294 3.85881 8.25017 4.24203 7.731C4.99727 6.70867 5.89412 5.81113 6.83818 4.97359C7.50141 4.37923 8.24065 3.86806 8.97349 3.3553C9.80794 2.77454 10.7176 2.34577 11.5976 1.8602C12.1577 1.54902 12.7977 1.36663 13.4065 1.14505C14.3138 0.815468 15.253 0.598683 16.1899 0.375498C16.3671 0.345362 16.5457 0.324535 16.7251 0.313103C17.8804 0.165113 19.038 -0.037276 20.1997 0.00592112C21.3889 0.0620158 22.5739 0.18675 23.7487 0.379497C24.8144 0.548711 25.8589 0.831917 26.8641 1.22424C27.9154 1.63117 28.9358 2.11401 29.917 2.66894C30.7822 3.15482 31.6083 3.70739 32.3876 4.32163C33.3979 5.12739 34.3301 6.0265 35.1717 7.00705C35.7354 7.67074 36.2598 8.36681 36.7422 9.09171C37.2531 9.86905 37.7077 10.682 38.1023 11.5244C38.5671 12.4843 38.8831 13.497 39.2439 14.4946C39.354 14.8336 39.4343 15.1815 39.484 15.5345C39.744 17.0264 40.0752 18.5191 39.9848 20.0582ZM12.1049 8.91253V8.92132C11.9377 8.92132 11.7704 8.92132 11.604 8.92132C11.0128 8.90613 10.5048 9.07491 10.0624 9.49409C9.66883 9.88282 9.30686 10.3022 8.97989 10.7484C8.42045 11.4612 8.05005 12.3037 7.90303 13.1978C7.73102 14.285 7.73102 15.3801 8.01024 16.4776C8.27505 17.5127 8.70868 18.4607 9.23431 19.375C9.71433 20.2046 10.2832 20.9693 10.848 21.7429C11.6806 22.8848 12.5937 23.9658 13.5801 24.9778C13.905 25.3098 14.2578 25.6178 14.5786 25.9522C15.0922 26.4825 15.6667 26.9393 16.2347 27.3921C17.214 28.158 18.2592 28.8358 19.3581 29.4175C20.1353 29.8272 20.9408 30.1806 21.7686 30.4751C22.4958 30.7407 23.2263 31.0134 23.9799 31.2246C25.0152 31.5158 26.056 31.6534 27.1105 31.5278C27.5329 31.4774 27.9745 31.4398 28.3906 31.2942C28.9322 31.1046 29.4242 30.8143 29.9106 30.5239C30.5107 30.1719 31.0859 29.7479 31.4595 29.164C32.0668 28.212 32.1988 27.1241 32.1548 26.0122C32.1569 25.9243 32.1367 25.8372 32.096 25.7593C32.0553 25.6813 31.9954 25.615 31.9219 25.5666C31.5395 25.2954 31.1083 25.1338 30.6923 24.9347C29.3514 24.2947 28.0633 23.5387 26.6449 23.0596C26.1432 22.89 25.6712 23.026 25.3888 23.4715C24.8488 24.3211 24.1887 25.0714 23.5039 25.8082C23.3743 25.9417 23.2053 26.0301 23.0217 26.0607C22.8382 26.0912 22.6497 26.0621 22.4838 25.9778C21.9774 25.7042 21.4438 25.4978 20.9213 25.2522C19.6365 24.6419 18.4972 23.8267 17.4372 22.9028C16.0771 21.7189 15.0474 20.2566 14.0906 18.7431C13.9903 18.5943 13.9439 18.4156 13.959 18.2368C13.9741 18.058 14.0499 17.8898 14.1738 17.7599C14.6962 17.1792 15.2138 16.596 15.6483 15.9369C16.0211 15.3665 16.0755 14.7785 15.7507 14.1954C15.3874 13.5434 15.1906 12.8259 14.8786 12.1547C14.4466 11.226 14.1586 10.2308 13.6233 9.3493C13.4961 9.14131 13.3345 8.97892 13.0633 8.96772C12.7457 8.95412 12.4249 8.93092 12.1049 8.91253Z" fill="black"/>
<path d="M12.1048 8.91235C12.4248 8.93075 12.7449 8.95395 13.0649 8.96755C13.3337 8.97875 13.4953 9.14114 13.6249 9.34912C14.1633 10.2291 14.4482 11.2258 14.8802 12.1545C15.193 12.8257 15.389 13.5432 15.7522 14.1952C16.077 14.7784 16.0226 15.3663 15.6498 15.9367C15.2186 16.5958 14.6978 17.179 14.1753 17.7598C14.0499 17.8903 13.9734 18.06 13.9585 18.2404C13.9436 18.4208 13.9914 18.6008 14.0937 18.7501C15.0538 20.2596 16.0834 21.7219 17.4403 22.9098C18.494 23.8298 19.6364 24.6449 20.9213 25.2577C21.4397 25.504 21.9774 25.7096 22.4838 25.9832C22.6502 26.0669 22.8391 26.095 23.0227 26.0635C23.2062 26.0319 23.3749 25.9424 23.5039 25.808C24.1847 25.0721 24.8487 24.3209 25.3888 23.4714C25.6712 23.0258 26.1432 22.8898 26.6448 23.0594C28.0633 23.5394 29.3514 24.2913 30.6922 24.9345C31.1083 25.1337 31.5395 25.2953 31.9219 25.5664C31.9953 25.6149 32.0552 25.6812 32.096 25.7591C32.1367 25.8371 32.1569 25.9241 32.1547 26.012C32.1987 27.1239 32.0667 28.2119 31.4595 29.1638C31.0859 29.7502 30.5106 30.1741 29.9106 30.5237C29.421 30.8109 28.9289 31.1045 28.3905 31.2941C27.9777 31.4396 27.5361 31.4772 27.1105 31.5276C26.056 31.6532 25.0151 31.5156 23.9799 31.2245C23.2262 31.0133 22.4958 30.7405 21.7686 30.4749C20.9408 30.1804 20.1352 29.827 19.358 29.4174C18.2588 28.8349 17.2134 28.1563 16.2339 27.3895C15.6658 26.9367 15.0914 26.48 14.5778 25.9496C14.2577 25.6184 13.9041 25.3097 13.5793 24.9753C12.5928 23.9625 11.6797 22.8806 10.8472 21.7379C10.2823 20.9643 9.7103 20.1996 9.23347 19.3701C8.70784 18.4557 8.27342 17.5078 8.0094 16.4726C7.73019 15.3767 7.73019 14.2816 7.9022 13.1929C8.04921 12.2988 8.41961 11.4563 8.97906 10.7434C9.30603 10.2973 9.66799 9.87785 10.0615 9.48911C10.5039 9.06994 11.012 8.90115 11.6032 8.91635C11.7696 8.92035 11.9368 8.91635 12.104 8.91635L12.1048 8.91235Z" fill="#FBFDFB"/>
</svg>
