<svg width="40" height="40" viewBox="0 0 40 40" fill="none" xmlns="http://www.w3.org/2000/svg">
<path d="M18.8107 0H21.2429C21.2189 0.0200036 21.2277 0.0368057 21.2517 0.0416066C21.2882 0.0498616 21.3254 0.0549482 21.3629 0.0568095C22.1449 0.104697 22.9231 0.202515 23.6926 0.349663C24.9356 0.576307 26.1533 0.924714 27.328 1.38985C28.1233 1.70991 28.9089 2.04837 29.6482 2.49245C29.9226 2.65728 30.2082 2.81251 30.4794 2.97814C30.8347 3.19658 31.1851 3.42462 31.5251 3.66706C31.9603 3.97672 32.3851 4.29997 32.7972 4.64163C33.1433 4.92862 33.4799 5.22734 33.8068 5.5378C34.3747 6.0756 34.9091 6.64771 35.4069 7.25091C35.7499 7.66698 36.0782 8.09372 36.3918 8.53114C36.627 8.85919 36.835 9.20726 37.0542 9.54732C37.2734 9.88738 37.4798 10.2562 37.6703 10.6211C37.8519 10.9684 38.0255 11.3204 38.1863 11.6789C38.3031 11.9389 38.4263 12.1974 38.5279 12.4622C38.6655 12.8068 38.7951 13.1536 38.9167 13.5024C39.0279 13.8225 39.1351 14.1425 39.2255 14.4698C39.316 14.7971 39.4128 15.1099 39.4728 15.4356C39.508 15.626 39.5768 15.8108 39.616 16.0005C39.7482 16.6265 39.8462 17.2593 39.9096 17.896C39.9224 18.0288 39.9336 18.1617 39.9504 18.2961C39.9504 18.3145 39.944 18.3761 40 18.3345V21.6631C39.9496 21.6951 39.9488 21.6943 39.9424 21.7679C39.8884 22.4051 39.8021 23.039 39.684 23.6675C38.8912 27.9321 36.7328 31.8232 33.5346 34.7533C30.3365 37.6834 26.2721 39.4935 21.9549 39.9104C21.8221 39.9232 21.6893 39.9328 21.5549 39.9472C21.5301 39.9472 21.4749 39.9384 21.5013 40H18.5251C18.5491 39.9832 18.5451 39.964 18.5251 39.9568C18.4944 39.9475 18.4627 39.9421 18.4307 39.9408C18.0371 39.912 17.6459 39.8656 17.2546 39.812C16.2038 39.6685 15.1666 39.4387 14.1536 39.1246C10.9526 38.1414 8.04961 36.3702 5.7109 33.9733C3.37219 31.5764 1.67262 28.6307 0.768044 25.4062C0.396869 24.0811 0.162299 22.7215 0.0680021 21.3486C0.069566 21.3062 0.0630508 21.2638 0.0488018 21.2238C0.0344009 21.195 0.00720043 21.2134 0 21.2446V19.3883C0.0240939 19.3289 0.035005 19.265 0.0319941 19.2011C0.0855973 18.3921 0.152804 17.5856 0.284812 16.7854C0.430547 15.9042 0.632578 15.0332 0.889653 14.1778C1.00593 13.7937 1.1342 13.4136 1.27447 13.0375C1.57324 12.2302 1.92413 11.443 2.32493 10.6811C2.75137 9.87684 3.23058 9.10167 3.75942 8.3607C4.23009 7.69977 4.74152 7.06883 5.29072 6.47157C5.69768 6.02829 6.12437 5.60474 6.5708 5.20094C7.30136 4.54489 8.0766 3.94039 8.89093 3.39181C10.4059 2.37208 12.0547 1.56697 13.7904 0.999379C15.2424 0.518367 16.7464 0.211627 18.2707 0.0856136C18.4307 0.0728113 18.5907 0.0616108 18.7507 0.0472082C18.7779 0.0472082 18.8299 0.0624112 18.8107 0ZM28.2329 12.051C27.8384 12.069 27.4487 12.1445 27.076 12.275C26.356 12.4999 25.6575 12.7703 24.9583 13.0471C22.8478 13.8841 20.7514 14.756 18.6691 15.6628C17.9755 15.9653 17.2786 16.2605 16.5826 16.559L15.6777 16.9455L14.9313 17.2655L13.852 17.7304L13.064 18.0697L12.0127 18.5225C11.7503 18.6346 11.4855 18.7434 11.2239 18.8562C10.8734 19.0066 10.5238 19.1581 10.175 19.3107C9.91259 19.4251 9.65178 19.5435 9.38696 19.6547C9.06694 19.79 8.73973 19.9124 8.43091 20.0724C8.17742 20.1976 7.94371 20.3593 7.73726 20.5525C7.55565 20.7285 7.53005 21.1126 7.66365 21.2998C7.72308 21.3886 7.79949 21.4648 7.88847 21.5239C8.25009 21.7559 8.65652 21.8831 9.05974 22.0136C9.48457 22.1504 9.91099 22.2808 10.3398 22.4136C10.6502 22.5121 10.9647 22.5937 11.2775 22.6809C11.5903 22.7681 11.9023 22.8073 12.2135 22.8761C12.9784 23.0457 13.6944 22.9049 14.3737 22.5433C14.6902 22.3665 14.9971 22.1728 15.2929 21.9632C17.6243 20.3933 19.9516 18.8186 22.3045 17.2823C22.6438 17.0607 22.983 16.839 23.3342 16.6358C23.4163 16.586 23.5083 16.5548 23.6038 16.5446C23.8366 16.5246 23.967 16.647 23.9702 16.8798C23.9685 16.9658 23.9351 17.0481 23.8766 17.1111C23.7302 17.2943 23.5686 17.4655 23.4054 17.6328C22.4613 18.5985 21.4717 19.5155 20.4908 20.4429C19.7708 21.1238 19.0219 21.7759 18.3251 22.4824C18.0331 22.7785 17.7187 23.0521 17.445 23.3626C17.2939 23.5211 17.1689 23.7026 17.0746 23.9003C17.0163 24.024 16.9895 24.1602 16.9966 24.2967C17.0037 24.4333 17.0446 24.5659 17.1154 24.6828C17.1853 24.8028 17.27 24.9136 17.3674 25.0125C17.5383 25.1828 17.7259 25.3353 17.9275 25.4678L20.8636 27.4369C21.8477 28.0957 22.8264 28.7625 23.7998 29.4373C24.2271 29.7342 24.6879 29.9622 25.2151 30.035C25.7807 30.115 26.2208 29.9294 26.5232 29.4381C26.5859 29.3391 26.6418 29.2359 26.6904 29.1292C26.8661 28.7112 26.9887 28.2728 27.0552 27.8242C27.1984 26.9841 27.3608 26.1439 27.508 25.307C27.6985 24.2204 27.8851 23.133 28.0681 22.0448C28.2281 21.0878 28.3833 20.1303 28.5337 19.1723C28.6708 18.298 28.8041 17.4229 28.9337 16.547C29.0628 15.661 29.1775 14.7731 29.2778 13.8833C29.3274 13.5126 29.3209 13.1366 29.2586 12.7679C29.2355 12.6191 29.1705 12.4799 29.0714 12.3666C28.9722 12.2533 28.8429 12.1704 28.6985 12.1278C28.5483 12.0778 28.3912 12.0519 28.2329 12.051Z" fill="black"/>
<path d="M28.2329 12.0511C28.3879 12.0542 28.5414 12.0812 28.6881 12.1312C28.8325 12.1738 28.9619 12.2566 29.061 12.37C29.1602 12.4833 29.2251 12.6225 29.2482 12.7713C29.3105 13.14 29.317 13.516 29.2674 13.8867C29.1666 14.7764 29.0519 15.6643 28.9234 16.5504C28.7964 17.4262 28.6631 18.3013 28.5233 19.1756C28.3729 20.1358 28.2177 21.0933 28.0577 22.0481C27.8753 23.1363 27.6886 24.2237 27.4977 25.3103C27.3505 26.1505 27.188 26.9906 27.0448 27.8276C26.9783 28.2762 26.8558 28.7146 26.68 29.1326C26.6314 29.2393 26.5756 29.3425 26.5128 29.4415C26.2104 29.9328 25.7704 30.1168 25.2047 30.0384C24.6775 29.9656 24.2167 29.7375 23.7894 29.4407C22.8166 28.7654 21.8379 28.0986 20.8533 27.4403L17.9171 25.4712C17.7155 25.3387 17.5279 25.1862 17.3571 25.0159C17.2596 24.917 17.1749 24.8062 17.105 24.6862C17.0342 24.5693 16.9934 24.4366 16.9862 24.3001C16.9791 24.1635 17.0059 24.0273 17.0642 23.9037C17.1585 23.706 17.2835 23.5245 17.4347 23.366C17.7123 23.0547 18.0267 22.7811 18.3147 22.4858C19.0116 21.7793 19.7596 21.1256 20.4804 20.4463C21.4717 19.5213 22.4582 18.6027 23.4054 17.6426C23.5654 17.4753 23.7302 17.3041 23.8766 17.1209C23.9352 17.0579 23.9685 16.9756 23.9703 16.8896C23.9703 16.6568 23.8366 16.5344 23.6038 16.5544C23.5084 16.5646 23.4163 16.5958 23.3342 16.6456C22.983 16.8488 22.6438 17.0705 22.3046 17.2921C19.9516 18.8284 17.6243 20.4031 15.2929 21.9729C14.9971 22.1826 14.6902 22.3762 14.3737 22.553C13.6904 22.9147 12.9744 23.0555 12.2135 22.8859C11.9023 22.8171 11.5855 22.7763 11.2775 22.6907C10.9695 22.605 10.6503 22.5218 10.3398 22.4234C9.91502 22.2898 9.48859 22.1594 9.05976 22.0233C8.65974 21.8929 8.25011 21.7657 7.88849 21.5337C7.79951 21.4745 7.7231 21.3984 7.66367 21.3096C7.53007 21.12 7.55567 20.7383 7.73728 20.5623C7.94373 20.3691 8.17744 20.2074 8.43093 20.0822C8.73975 19.9222 9.06696 19.7997 9.38698 19.6645C9.6518 19.5533 9.91261 19.4349 10.175 19.3205C10.5244 19.1684 10.874 19.0169 11.2239 18.866C11.4855 18.7532 11.7503 18.6443 12.0127 18.5323L13.064 18.0786L13.8521 17.7394L14.9313 17.2745L15.6778 16.9544L16.5826 16.568C17.2787 16.2695 17.9755 15.9743 18.6691 15.6718C20.7493 14.765 22.8457 13.8931 24.9583 13.0561C25.6576 12.7793 26.3584 12.5088 27.076 12.284C27.4483 12.1505 27.838 12.0721 28.2329 12.0511Z" fill="#FEFFFF"/>
</svg>
